<svg width="980" height="551" xmlns="http://www.w3.org/2000/svg" xmlns:xlink="http://www.w3.org/1999/xlink">
<path fill="#ff595e" d="M 221.49 511.03 Q 221.49 511.03 220.98 509.14 220.46 507.25 222.17 504.94 223.88 502.64 228.09 499.96 232.31 497.28 240.50 494.14 248.69 491.01 260.76 486.60 272.83 482.18 290.56 473.92 308.30 465.65 327.42 453.41 346.54 441.17 364.33 426.18 382.13 411.19 396.37 395.32 410.61 379.45 419.26 366.15 427.91 352.85 431.06 343.90 434.21 334.96 431.99 328.59 429.78 322.22 421.76 317.40 413.75 312.58 394.20 308.72 374.66 304.87 353.84 305.08 333.03 305.30 314.49 311.12 295.96 316.94 280.47 329.42 264.98 341.91 255.44 357.77 245.89 373.62 244.90 390.27 243.91 406.92 250.56 416.65 257.20 426.39 272.67 429.13 288.15 431.88 311.41 426.28 334.68 420.68 358.92 412.09 383.17 403.50 383.17 403.50 383.18 403.51 383.18 403.51 383.18 403.52 359.39 414.05 335.61 424.57 311.58 430.19 287.55 435.81 271.09 432.46 254.64 429.12 247.35 418.15 240.06 407.18 241.23 389.47 242.41 371.76 252.41 355.30 262.42 338.85 278.55 326.01 294.68 313.17 313.81 307.24 332.94 301.31 354.18 301.13 375.42 300.94 395.61 305.05 415.79 309.15 424.49 314.81 433.19 320.48 435.59 328.11 437.99 335.75 434.63 345.38 431.28 355.00 422.43 368.56 413.59 382.11 399.15 398.18 384.71 414.25 366.70 429.39 348.69 444.54 329.34 456.91 309.99 469.28 292.09 477.61 274.20 485.94 262.16 490.34 250.11 494.75 242.26 497.72 234.40 500.68 230.69 502.92 226.97 505.16 225.62 506.78 224.27 508.40 222.89 509.72 221.51 511.04 221.50 511.04 Z" data-drauu_index="0"></path>
</svg>